<?xml version="1.0" encoding="utf-8"?>
<!-- Generator: Adobe Illustrator 16.0.0, SVG Export Plug-In . SVG Version: 6.00 Build 0)  -->
<!DOCTYPE svg PUBLIC "-//W3C//DTD SVG 1.1//EN" "http://www.w3.org/Graphics/SVG/1.1/DTD/svg11.dtd">
<svg version="1.1" xmlns="http://www.w3.org/2000/svg" xmlns:xlink="http://www.w3.org/1999/xlink" x="0px" y="0px"
	 width="1199.875px" height="425.952px" viewBox="0 0 1199.875 425.952" enable-background="new 0 0 1199.875 425.952"
	 xml:space="preserve">
<g id="Layer_1">
</g>
<g id="Layer_3">
</g>
<g id="Layer_2">
	<g>
		<path d="M73.428,304.494h12.584v-25.724h-8.545c-4.833,0-8.405-0.261-10.614-0.776c-1.958-0.46-3.496-1.385-4.706-2.827
			c-1.337-1.591-2.266-3.922-2.762-6.929c-0.536-3.252-0.808-7.92-0.808-13.873v-63.939c0-10.094-1.753-17.838-5.211-23.021
			c-2.847-4.263-6.543-7.955-11.014-11.007c4.472-3.048,8.167-6.736,11.014-10.996c3.458-5.176,5.211-12.915,5.211-23.002V58.557
			c0-5.942,0.294-10.624,0.875-13.915c0.539-3.06,1.446-5.366,2.696-6.855c1.218-1.45,2.79-2.403,4.806-2.911
			c2.25-0.565,5.787-0.852,10.514-0.852h8.545V8.3H73.428c-7.434,0-13.564,0.849-18.224,2.523
			c-4.774,1.717-8.857,4.568-12.136,8.473c-3.432,4.087-5.818,8.736-7.092,13.816c-1.241,4.944-1.871,11.999-1.871,20.967v65.006
			c0,8.979-1.576,15.409-4.645,19.064c-1.409,1.579-3.09,2.881-4.997,3.867c-1.838,0.951-3.965,1.434-6.323,1.434H8.62v25.726h9.521
			c2.26,0,4.385,0.511,6.316,1.517c1.983,1.035,3.653,2.352,4.962,3.91c3.109,3.713,4.686,10.154,4.686,19.145v64.936
			c0,8.94,0.629,16.001,1.87,20.984c1.274,5.122,3.661,9.787,7.095,13.865c3.281,3.894,7.364,6.735,12.136,8.447
			C59.861,303.648,65.992,304.494,73.428,304.494z"/>
		<polygon points="114.514,55.624 167.275,55.624 167.275,251.994 190.779,251.994 190.779,55.624 243.54,55.624 243.54,30.93 
			114.514,30.93 		"/>
		<path d="M329.808,84.139c-8.219,0-16.008,2.03-23.15,6.034c-5.11,2.863-9.415,6.532-12.861,10.951V86.064h-23.814v165.79h23.814
			V150.662c0-5.984,0.765-11.568,2.275-16.6c1.504-5.018,3.589-9.473,6.199-13.24c2.548-3.681,5.74-6.577,9.485-8.608
			c3.732-2.022,7.947-3.049,12.526-3.049c5.035,0,9.119,0.813,12.137,2.415l2.777,1.475l1.405-27.855l-1.742-0.305
			C335.99,84.393,332.944,84.139,329.808,84.139z"/>
		<path d="M415.778,84.139c-11.279,0-20.894,1.775-28.58,5.275c-7.781,3.548-14.913,10.383-21.199,20.315l-0.825,1.303l16.38,17.608
			l1.369-2.279c3.841-6.393,8.149-10.903,12.803-13.404c4.678-2.516,11.333-3.792,19.78-3.792c11.876,0,20.402,2.708,25.34,8.047
			c4.98,5.386,7.506,13.753,7.506,24.868v13.323H409.51c-15.77,0-28.023,4.431-36.419,13.169
			c-8.376,8.715-12.623,20.561-12.623,35.208c0,6.521,0.911,12.886,2.708,18.915c1.815,6.101,4.501,11.314,7.957,15.465
			c4.421,5.536,9.867,9.578,16.187,12.014c6.212,2.393,14.197,3.606,23.732,3.606c9.239,0,17.009-1.366,23.096-4.061
			c4.85-2.149,9.613-5.677,14.207-10.515v12.649h23.813V140.068c0-18.219-4.687-32.244-13.932-41.687
			C448.975,88.931,434.691,84.139,415.778,84.139z M412.941,228.754c-10.338,0-17.886-2.068-22.434-6.15
			c-4.488-4.027-6.764-10.467-6.764-19.14c0-17.659,9.285-26.243,28.387-26.243h36.222v15.293c0,12.66-2.148,21.504-6.396,26.297
			c-4.01,4.613-8.367,7.44-12.95,8.401C424.133,228.235,418.729,228.754,412.941,228.754z"/>
		<path d="M617.625,227.792l-16.182-18.497l-1.483,1.953c-4.939,6.5-9.665,11.105-14.047,13.689
			c-4.296,2.533-9.555,3.816-15.631,3.816c-6.181,0-11.856-1.45-16.87-4.312c-5.022-2.864-9.337-7.244-12.813-12.999
			c-3.02-5.135-5.231-11.006-6.574-17.451c-1.358-6.515-2.047-14.937-2.047-25.032c0-10.093,0.688-18.516,2.047-25.032
			c1.341-6.438,3.55-12.251,6.562-17.271c3.491-5.779,7.79-10.19,12.778-13.109c4.967-2.908,10.659-4.382,16.917-4.382
			c6.079,0,11.343,1.26,15.645,3.744c4.378,2.532,9.1,7.108,14.033,13.603l1.468,1.932l16.208-18.143l-1.027-1.316
			c-7.151-9.171-14.308-15.672-21.272-19.321c-6.998-3.666-15.427-5.524-25.055-5.524c-8.893,0-17.213,1.849-24.732,5.497
			c-7.522,3.65-14.153,9.107-19.708,16.218c-5.525,7.073-9.903,15.963-13.011,26.422c-3.097,10.409-4.667,22.752-4.667,36.685
			c0,13.93,1.569,26.35,4.665,36.915c3.108,10.624,7.486,19.598,13.013,26.672c5.563,7.123,12.205,12.504,19.741,15.994
			c7.509,3.477,15.819,5.239,24.699,5.239c9.711,0,18.161-1.831,25.116-5.44c6.922-3.596,14.059-10.07,21.211-19.245
			L617.625,227.792z"/>
		<rect x="815.305" y="88.904" width="30.403" height="35.605"/>
		<rect x="815.305" y="217.389" width="30.403" height="35.605"/>
		<rect x="893.172" y="21.632" width="24.63" height="28.713"/>
		<path d="M897.635,307.17c4.314-2.175,7.924-5.266,10.728-9.186c2.752-3.852,4.833-8.405,6.186-13.537
			c1.329-5.066,2.003-10.573,2.003-16.366V89.914h-22.379v177.013c0,6.905-1.096,12.092-3.257,15.413
			c-1.984,3.048-5.921,4.594-11.7,4.594h-12.049v23.502h15.377C888.246,310.436,893.323,309.338,897.635,307.17z"/>
		<path d="M1064.437,169.039c-3.662-3.629-8.179-6.398-13.427-8.232c-5.112-1.785-10.776-3.02-16.818-3.665l-21.729-2.501
			c-8.172-0.791-13.956-2.946-17.19-6.407c-3.216-3.442-4.847-8.433-4.847-14.834c0-7.696,2.317-13.516,7.086-17.79
			c4.765-4.276,11.957-6.444,21.376-6.444c6.759,0,13.189,1.005,19.113,2.986c5.86,1.963,11.132,5.048,15.667,9.168l1.537,1.397
			l15.436-18.33l-1.244-1.297c-6.213-6.479-13.729-11.315-22.341-14.376c-8.538-3.036-17.925-4.575-27.899-4.575
			c-7.389,0-14.352,1.162-20.693,3.452c-6.378,2.302-11.958,5.642-16.585,9.926c-4.639,4.293-8.294,9.558-10.863,15.646
			c-2.564,6.074-3.865,13.119-3.865,20.939c0,13.672,3.687,24.34,10.956,31.708c7.224,7.325,17.797,11.701,31.403,13.003
			l22.376,2.408c7.379,0.791,12.764,2.954,16.004,6.43c3.222,3.458,4.855,8.466,4.855,14.886c0,8.913-2.882,15.331-8.811,19.624
			c-6.049,4.375-14.565,6.594-25.314,6.594c-8.161,0-15.832-1.366-22.8-4.063c-6.865-2.656-12.908-7.22-17.96-13.564l-1.514-1.9
			l-15.893,18.684l1.115,1.297c7.728,8.992,16.357,15.412,25.65,19.083c9.229,3.644,19.884,5.49,31.669,5.49
			c8.438,0,16.199-1.146,23.068-3.407c6.916-2.277,13-5.696,18.085-10.162c5.09-4.475,9.07-9.921,11.831-16.189
			c2.751-6.256,4.146-13.586,4.146-21.787c0-7.596-1.018-14.176-3.025-19.557C1070.966,177.253,1068.088,172.664,1064.437,169.039z"
			/>
		<path d="M1180.746,143.451c-2.279,0-4.416-0.486-6.354-1.449c-1.973-0.978-3.63-2.258-4.927-3.807
			c-3.108-3.697-4.685-10.127-4.685-19.109V54.08c0-8.845-0.629-15.869-1.869-20.88c-1.275-5.138-3.662-9.816-7.095-13.904
			c-3.277-3.904-7.359-6.755-12.135-8.474c-4.66-1.674-10.792-2.522-18.224-2.522h-12.862v25.724h8.825
			c4.807,0,8.311,0.284,10.412,0.844c1.887,0.506,3.401,1.461,4.667,2.963c1.324,1.487,2.289,3.787,2.868,6.836
			c0.624,3.3,0.94,7.974,0.94,13.89V122.4c0,10.093,1.754,17.832,5.212,23.002c2.842,4.258,6.538,7.947,11.012,10.996
			c-4.474,3.053-8.169,6.745-11.012,11.006c-3.458,5.178-5.212,12.922-5.212,23.021v63.939c0,5.929-0.339,10.6-1.006,13.885
			c-0.625,3.082-1.581,5.41-2.841,6.917c-1.214,1.445-2.734,2.37-4.644,2.829c-2.165,0.514-5.663,0.774-10.397,0.774h-8.825v25.724
			h12.862c7.435,0,13.565-0.846,18.223-2.515c4.772-1.712,8.855-4.554,12.135-8.447c3.433-4.077,5.819-8.741,7.096-13.864
			c1.24-4.994,1.869-12.054,1.869-20.984v-64.936c0-8.994,1.576-15.436,4.646-19.098c1.416-1.59,3.11-2.926,5.033-3.974
			c1.829-0.995,3.943-1.5,6.285-1.5h9.241v-25.726H1180.746z"/>
		<polygon points="749.514,97.795 693.963,161.183 693.963,19.794 669.829,19.794 669.829,250.59 693.963,250.59 693.963,175.005 
			750.457,250.59 780.526,250.59 718.96,168.342 781.087,97.795 		"/>
		<path d="M24.623,411.684c0,1.161-0.144,2.136-0.428,2.896c-0.268,0.715-0.641,1.289-1.105,1.703
			c-0.47,0.418-1.049,0.719-1.724,0.895c-1.587,0.42-3.694,0.357-5.341,0.037c-0.892-0.177-1.719-0.418-2.458-0.718l-1.376-0.558
			v6.847l0.581,0.269c0.586,0.271,1.42,0.523,2.549,0.774c1.102,0.243,2.455,0.378,4.023,0.4h0.014c1.868,0,3.583-0.248,5.097-0.737
			c1.549-0.5,2.9-1.259,4.016-2.256c1.129-1.008,2.006-2.275,2.607-3.768c0.592-1.47,0.892-3.195,0.892-5.129v-45.82h-7.347V411.684
			z"/>
		<path d="M64.735,367.52l-18.693,45.89h7.907l5.242-13.22h16.993l5.241,13.22h7.972l-18.692-45.89H64.735z M73.487,393.368H61.893
			l1.097-2.763c1.505-3.771,3.093-7.954,4.733-12.462c1.57,4.442,3.131,8.626,4.653,12.469L73.487,393.368z"/>
		<path d="M122.005,390.736c-1.487,3.966-2.913,7.959-4.252,11.904c-1.341-3.941-2.778-7.935-4.284-11.903l-8.667-23.218h-7.49
			l17.402,45.89h6.047l17.402-45.89h-7.49L122.005,390.736z"/>
		<path d="M164.969,367.52l-18.693,45.89h7.907l5.241-13.22h16.993l5.242,13.22h7.973l-18.692-45.89H164.969z M173.72,393.368
			h-11.593l1.097-2.763c1.504-3.769,3.092-7.951,4.732-12.461c1.571,4.445,3.132,8.627,4.653,12.468L173.72,393.368z"/>
		<path d="M230.546,390.379c-1.367-0.941-2.94-1.687-4.674-2.214c-1.648-0.505-3.356-0.974-5.079-1.396
			c-1.225-0.295-2.434-0.621-3.595-0.97c-1.079-0.323-2.032-0.739-2.836-1.237c-0.755-0.467-1.339-1.043-1.787-1.76
			c-0.42-0.678-0.634-1.576-0.634-2.672c0-1.021,0.173-1.957,0.515-2.781c0.334-0.808,0.83-1.474,1.518-2.039
			c0.698-0.578,1.604-1.033,2.695-1.354c1.127-0.333,2.489-0.501,4.037-0.501c2.129,0.022,4.144,0.268,5.987,0.727
			c1.874,0.465,3.717,1.077,5.478,1.818l1.388,0.586v-7.118l-0.606-0.26c-1.73-0.742-3.661-1.353-5.738-1.813
			c-2.086-0.462-4.36-0.696-6.76-0.696c-2.134,0-4.178,0.266-6.074,0.791c-1.931,0.535-3.662,1.375-5.146,2.494
			c-1.508,1.135-2.72,2.593-3.604,4.332c-0.884,1.74-1.332,3.829-1.332,6.209c0,2.305,0.435,4.246,1.293,5.771
			c0.848,1.506,1.989,2.756,3.391,3.714c1.353,0.926,2.913,1.659,4.638,2.183c1.649,0.496,3.353,0.949,5.061,1.344
			c1.263,0.3,2.485,0.625,3.634,0.97c1.081,0.323,2.042,0.744,2.859,1.253c0.76,0.473,1.376,1.077,1.829,1.797
			c0.432,0.689,0.651,1.603,0.651,2.716c0,1.409-0.264,2.583-0.785,3.485c-0.53,0.917-1.227,1.619-2.131,2.146
			c-0.944,0.551-2.068,0.951-3.338,1.193c-2.136,0.402-4.402,0.516-7.091,0.186c-1.036-0.127-2.076-0.303-3.089-0.523
			c-1.002-0.219-1.994-0.492-2.949-0.811c-0.924-0.307-1.774-0.652-2.526-1.027l-1.446-0.721v7.063l0.479,0.292
			c0.571,0.348,1.31,0.679,2.258,1.01c0.913,0.318,1.938,0.605,3.048,0.852c1.11,0.248,2.291,0.447,3.51,0.592
			c1.229,0.146,2.444,0.22,3.612,0.22c2.541,0,4.917-0.269,7.064-0.8c2.19-0.543,4.118-1.389,5.729-2.514
			c1.649-1.146,2.958-2.636,3.892-4.424c0.933-1.789,1.406-3.926,1.406-6.352c0-2.395-0.445-4.401-1.322-5.965
			C233.109,392.628,231.956,391.35,230.546,390.379z"/>
		<path d="M280.141,406.566c-0.771,0.182-1.565,0.342-2.365,0.478c-0.801,0.14-1.606,0.246-2.397,0.317
			c-0.77,0.074-1.52,0.111-2.229,0.111c-2.562,0-4.912-0.337-6.984-1.001c-2.028-0.65-3.783-1.663-5.215-3.008
			c-1.43-1.342-2.552-3.069-3.335-5.137c-0.794-2.095-1.197-4.618-1.197-7.502c0-2.9,0.435-5.464,1.291-7.618
			c0.851-2.145,2.025-3.959,3.489-5.396c1.46-1.433,3.212-2.526,5.206-3.251c3.34-1.213,7.302-1.395,11.114-0.68
			c1.518,0.285,2.939,0.645,4.222,1.066l1.313,0.434v-6.762l-0.601-0.262c-0.538-0.234-1.188-0.459-1.932-0.67
			c-0.719-0.202-1.52-0.381-2.38-0.53c-0.832-0.145-1.727-0.259-2.662-0.339c-0.929-0.079-1.874-0.119-2.808-0.119
			c-3.591,0-6.881,0.605-9.779,1.798c-2.905,1.196-5.416,2.893-7.461,5.04c-2.044,2.148-3.629,4.75-4.709,7.729
			c-1.074,2.962-1.618,6.244-1.618,9.756c0,3.576,0.516,6.829,1.534,9.67c1.031,2.873,2.573,5.343,4.583,7.342
			c2.01,1.999,4.522,3.55,7.468,4.61c2.917,1.051,6.298,1.585,10.048,1.585c1.847,0,3.666-0.143,5.408-0.424
			c1.773-0.284,3.354-0.694,4.699-1.22l0.636-0.248v-6.816l-1.332,0.468C281.563,406.194,280.888,406.389,280.141,406.566z"/>
		<path d="M321.206,392.981c1.534-0.702,2.873-1.62,3.982-2.728c1.117-1.119,1.997-2.455,2.614-3.973
			c0.614-1.514,0.925-3.24,0.925-5.133c0-3.217-0.891-5.95-2.646-8.124c-1.745-2.158-4.277-3.701-7.525-4.585
			c-1.168-0.318-2.462-0.555-3.846-0.701c-1.381-0.145-3.064-0.219-5.003-0.219h-12.369v45.89h7.347v-18.172h4.959l13.515,18.172
			h7.758l-13.296-19.205C318.904,393.896,320.106,393.486,321.206,392.981z M319.799,385.31c-0.873,1.082-2.155,1.888-3.815,2.396
			c-0.842,0.262-1.823,0.446-2.915,0.551c-1.12,0.105-2.5,0.16-4.104,0.16h-4.281v-14.074h5.068c1.64,0,3.009,0.053,4.066,0.158
			c1.031,0.104,1.915,0.268,2.632,0.488c1.462,0.443,2.612,1.167,3.419,2.152c0.788,0.963,1.198,2.281,1.217,3.909
			C321.086,382.843,320.666,384.236,319.799,385.31z"/>
		<rect x="350.094" y="367.52" width="7.346" height="45.89"/>
		<path d="M402.359,368.924c-1.339-0.479-2.832-0.838-4.438-1.066c-1.579-0.225-3.319-0.338-5.17-0.338h-13.156v45.89h7.348v-17.964
			c4.532,0.296,8.61,0.035,11.991-0.777c2.518-0.604,4.694-1.519,6.47-2.719c1.811-1.227,3.216-2.778,4.175-4.613
			c0.955-1.83,1.439-3.967,1.439-6.351c0-2.937-0.748-5.458-2.222-7.493C407.33,371.467,405.164,369.93,402.359,368.924z
			 M386.941,374.342h5.199c1.578,0,2.974,0.069,4.148,0.206c1.139,0.133,2.153,0.362,3.011,0.681
			c1.32,0.498,2.344,1.224,3.046,2.158c0.684,0.91,1.03,2.121,1.03,3.599c0,1.221-0.223,2.321-0.661,3.267
			c-0.43,0.926-1.111,1.693-2.082,2.35c-1.005,0.681-2.346,1.211-3.986,1.574c-1.689,0.377-3.78,0.567-6.212,0.567
			c-0.682,0-1.407-0.022-2.178-0.065c-0.446-0.024-0.886-0.057-1.315-0.096V374.342z"/>
		<polygon points="423.643,374.342 438.305,374.342 438.305,413.409 445.652,413.409 445.652,374.342 460.315,374.342 
			460.315,367.52 423.643,367.52 		"/>
		<polygon points="519,393.335 537.927,393.335 537.927,386.513 519,386.513 519,374.342 540.289,374.342 540.289,367.52 
			511.653,367.52 511.653,413.409 541.503,413.409 541.503,406.588 519,406.588 		"/>
		<path d="M585.557,392.981c1.53-0.7,2.869-1.618,3.982-2.729c1.117-1.12,1.996-2.456,2.612-3.972
			c0.615-1.514,0.927-3.24,0.927-5.133c0-3.217-0.891-5.949-2.647-8.123c-1.745-2.159-4.277-3.701-7.526-4.586
			c-1.167-0.318-2.461-0.555-3.845-0.701c-1.382-0.145-3.065-0.219-5.003-0.219h-12.37v45.89h7.347v-18.172h4.959l13.516,18.172
			h7.757l-13.295-19.205C583.254,393.896,584.456,393.486,585.557,392.981z M584.149,385.311c-0.873,1.082-2.155,1.887-3.815,2.395
			c-0.841,0.262-1.822,0.446-2.914,0.551c-1.119,0.105-2.5,0.16-4.104,0.16h-4.281v-14.074h5.068c1.64,0,3.009,0.053,4.065,0.158
			c1.031,0.104,1.915,0.268,2.632,0.488c1.483,0.449,2.602,1.152,3.42,2.151c0.789,0.966,1.199,2.286,1.217,3.91
			C585.437,382.816,585.003,384.25,584.149,385.311z"/>
		<path d="M635.313,392.981c1.534-0.703,2.873-1.62,3.981-2.728c1.121-1.122,2-2.459,2.612-3.971
			c0.615-1.511,0.927-3.238,0.927-5.135c0-3.215-0.89-5.948-2.646-8.123c-1.743-2.158-4.275-3.701-7.526-4.586
			c-1.168-0.318-2.462-0.555-3.846-0.701c-1.38-0.145-3.064-0.219-5.003-0.219h-12.369v45.89h7.348v-18.172h4.959l13.515,18.172
			h7.758l-13.296-19.205C633.011,393.896,634.213,393.486,635.313,392.981z M633.905,385.31c-0.873,1.083-2.155,1.888-3.815,2.396
			c-0.84,0.262-1.82,0.446-2.913,0.551c-1.12,0.105-2.501,0.16-4.104,0.16h-4.281v-14.074h5.068c1.639,0,3.007,0.053,4.065,0.158
			c1.031,0.104,1.915,0.268,2.631,0.488c1.482,0.449,2.601,1.152,3.42,2.152c0.789,0.964,1.199,2.283,1.217,3.909
			C635.193,382.817,634.76,384.25,633.905,385.31z"/>
		<path d="M695.751,373.438c-1.846-2.112-4.124-3.782-6.773-4.964c-2.647-1.178-5.67-1.775-8.981-1.775
			c-3.247,0-6.231,0.598-8.87,1.777c-2.637,1.181-4.913,2.85-6.768,4.96c-1.845,2.099-3.29,4.633-4.296,7.533
			c-0.996,2.878-1.501,6.083-1.501,9.526c0,3.418,0.487,6.604,1.449,9.471c0.971,2.889,2.394,5.42,4.23,7.525
			c1.845,2.111,4.131,3.781,6.793,4.963c2.652,1.178,5.69,1.774,9.028,1.774c3.229,0,6.196-0.598,8.821-1.776
			c2.624-1.181,4.901-2.848,6.768-4.957c1.86-2.108,3.306-4.639,4.295-7.522c0.985-2.868,1.485-6.056,1.485-9.478
			c0-3.441-0.487-6.643-1.449-9.517C699.011,378.077,697.587,375.54,695.751,373.438z M680.063,407.473
			c-2.001,0-3.887-0.36-5.603-1.07c-1.7-0.707-3.196-1.77-4.448-3.158c-1.264-1.402-2.278-3.181-3.016-5.286
			c-0.745-2.124-1.123-4.635-1.123-7.462c0-2.825,0.373-5.342,1.107-7.48c0.728-2.115,1.735-3.897,2.998-5.298
			c1.251-1.39,2.749-2.458,4.451-3.176c1.719-0.722,3.592-1.087,5.566-1.087c1.976,0,3.848,0.365,5.565,1.087
			c1.702,0.716,3.2,1.784,4.453,3.176c1.263,1.402,2.271,3.185,2.997,5.298c0.734,2.134,1.106,4.65,1.106,7.48
			s-0.372,5.343-1.106,7.467c-0.725,2.1-1.733,3.877-2.997,5.281c-1.252,1.391-2.739,2.453-4.419,3.158
			C683.902,407.113,682.041,407.473,680.063,407.473z"/>
		<path d="M748.145,392.981c1.534-0.704,2.873-1.622,3.979-2.728c1.121-1.121,2-2.458,2.613-3.971
			c0.615-1.51,0.927-3.236,0.927-5.135c0-3.217-0.891-5.95-2.646-8.123c-1.742-2.158-4.274-3.701-7.526-4.586
			c-1.166-0.318-2.459-0.555-3.845-0.701c-1.381-0.145-3.064-0.219-5.002-0.219h-12.37v45.89h7.347v-18.172h4.959l13.516,18.172
			h7.756l-13.295-19.205C745.841,393.896,747.043,393.486,748.145,392.981z M746.735,385.31c-0.873,1.082-2.155,1.888-3.817,2.396
			c-0.838,0.261-1.817,0.445-2.913,0.551c-1.12,0.105-2.501,0.16-4.104,0.16h-4.281v-14.074h5.067c1.641,0,3.009,0.053,4.066,0.158
			c1.031,0.104,1.916,0.268,2.632,0.488c1.462,0.443,2.613,1.167,3.42,2.151c0.788,0.964,1.197,2.284,1.216,3.91
			C748.021,382.844,747.601,384.236,746.735,385.31z"/>
		<polygon points="797.622,374.342 812.285,374.342 812.285,413.409 819.633,413.409 819.633,374.342 834.295,374.342 
			834.295,367.52 797.622,367.52 		"/>
		<path d="M879.054,392.981c1.533-0.702,2.872-1.62,3.982-2.729c1.117-1.12,1.996-2.456,2.611-3.971
			c0.615-1.513,0.927-3.239,0.927-5.134c0-3.217-0.891-5.95-2.646-8.123c-1.742-2.158-4.274-3.701-7.525-4.586
			c-1.168-0.318-2.462-0.555-3.847-0.701c-1.381-0.145-3.064-0.219-5.002-0.219h-12.37v45.89h7.348v-18.172h4.958l13.515,18.172
			h7.759l-13.296-19.205C876.75,393.896,877.952,393.486,879.054,392.981z M877.646,385.31c-0.873,1.082-2.155,1.888-3.815,2.396
			c-0.84,0.262-1.82,0.446-2.914,0.551c-1.12,0.105-2.501,0.16-4.104,0.16h-4.281v-14.074h5.067c1.639,0,3.007,0.053,4.065,0.158
			c1.031,0.104,1.915,0.268,2.632,0.488c1.482,0.449,2.602,1.152,3.42,2.152c0.788,0.963,1.198,2.282,1.218,3.909
			C878.934,382.817,878.5,384.25,877.646,385.31z"/>
		<path d="M915.717,367.52l-18.692,45.89h7.907l5.242-13.22h16.992l5.24,13.22h7.975l-18.693-45.89H915.717z M924.468,393.368
			h-11.592l1.097-2.763c1.517-3.801,3.104-7.982,4.732-12.461c1.58,4.469,3.141,8.652,4.652,12.467L924.468,393.368z"/>
		<path d="M983.358,406.566c-0.772,0.182-1.567,0.342-2.365,0.478c-0.803,0.14-1.607,0.247-2.397,0.317
			c-0.771,0.074-1.521,0.111-2.229,0.111c-2.563,0-4.913-0.337-6.983-1.001c-2.029-0.65-3.784-1.662-5.216-3.007
			s-2.555-3.073-3.337-5.138c-0.794-2.095-1.196-4.618-1.196-7.502c0-2.897,0.434-5.46,1.289-7.618
			c0.855-2.147,2.029-3.963,3.492-5.396c1.461-1.435,3.212-2.528,5.203-3.251c3.342-1.213,7.301-1.395,11.117-0.68
			c1.519,0.285,2.938,0.645,4.22,1.066l1.313,0.434v-6.763l-0.602-0.261c-0.546-0.237-1.195-0.463-1.931-0.67
			c-0.72-0.202-1.521-0.381-2.379-0.53c-0.832-0.145-1.729-0.259-2.663-0.339c-0.928-0.079-1.872-0.119-2.808-0.119
			c-3.592,0-6.882,0.605-9.778,1.798c-2.904,1.196-5.415,2.892-7.463,5.04c-2.043,2.148-3.628,4.749-4.709,7.729
			c-1.072,2.96-1.616,6.243-1.616,9.756c0,3.576,0.517,6.829,1.534,9.669c1.029,2.873,2.571,5.344,4.582,7.344
			c2.013,1.998,4.524,3.549,7.468,4.609c2.917,1.051,6.298,1.585,10.049,1.585c1.845,0,3.665-0.143,5.407-0.424
			c1.771-0.284,3.353-0.694,4.698-1.22l0.637-0.248v-6.816l-1.331,0.468C984.783,406.193,984.107,406.388,983.358,406.566z"/>
		<polygon points="1038.795,367.52 1030.704,367.52 1011.9,387.729 1011.9,367.52 1004.553,367.52 1004.553,413.409 1011.9,413.409 
			1011.9,393.28 1031.938,413.409 1040.088,413.409 1017.403,390.349 		"/>
		<rect x="1053.195" y="367.52" width="7.348" height="45.89"/>
		<path d="M1114.973,391.875c0,3.257,0.077,6.497,0.23,9.674c-2.05-3.135-4.112-6.195-6.155-9.135l-17.517-24.895h-6.836v45.89
			h7.348v-23.405c0-3.857-0.076-7.405-0.226-10.592c1.868,2.869,3.929,5.918,6.15,9.104l17.518,24.894h6.866v-45.89h-7.379V391.875z
			"/>
		<path d="M1166.17,395.664h10.005v11.258c-0.717,0.146-1.514,0.268-2.379,0.359c-1.188,0.127-2.411,0.191-3.634,0.191
			c-2.614,0-5.015-0.332-7.135-0.987c-2.073-0.643-3.856-1.644-5.299-2.978c-1.442-1.332-2.576-3.049-3.37-5.104
			c-0.804-2.081-1.212-4.609-1.212-7.513c0-2.949,0.489-5.544,1.455-7.712c0.966-2.166,2.272-3.987,3.883-5.415
			c1.616-1.434,3.514-2.52,5.641-3.228c3.628-1.212,7.729-1.351,11.764-0.652c1.643,0.284,3.117,0.642,4.381,1.063l1.316,0.438
			v-6.766l-0.601-0.262c-0.545-0.237-1.223-0.464-2.014-0.674c-0.758-0.201-1.606-0.379-2.521-0.527
			c-0.887-0.145-1.841-0.259-2.836-0.339c-4.742-0.37-9.232,0.163-13.114,1.637c-3.082,1.172-5.75,2.865-7.932,5.032
			c-2.184,2.17-3.873,4.817-5.021,7.867c-1.138,3.029-1.715,6.436-1.715,10.127c0,3.41,0.529,6.553,1.572,9.338
			c1.054,2.822,2.626,5.253,4.67,7.226c2.04,1.972,4.594,3.515,7.59,4.585c2.972,1.063,6.435,1.601,10.293,1.601
			c1.296,0,2.627-0.067,3.955-0.201s2.589-0.315,3.746-0.538c1.17-0.226,2.219-0.47,3.117-0.725
			c0.958-0.271,1.681-0.538,2.209-0.814l0.537-0.279v-22.83h-17.353V395.664z"/>
	</g>
</g>
</svg>
