<?xml version="1.0" encoding="utf-8"?>
<!-- Generator: Adobe Illustrator 18.0.0, SVG Export Plug-In . SVG Version: 6.00 Build 0)  -->
<!DOCTYPE svg PUBLIC "-//W3C//DTD SVG 1.1//EN" "http://www.w3.org/Graphics/SVG/1.1/DTD/svg11.dtd">
<svg version="1.1" id="Layer_1" xmlns="http://www.w3.org/2000/svg" xmlns:xlink="http://www.w3.org/1999/xlink" x="0px" y="0px"
	 viewBox="0 191.2 800 217.7" enable-background="new 0 191.2 800 217.7" xml:space="preserve">
<g>
	<g>
		<path fill="#EA5143" d="M28.3,330.4c0-3.7-0.6-7.1-1.7-10.2s-2.8-5.7-5.1-7.9s-4.8-3.7-7.9-5.1c-3.1-0.8-6.5-1.4-9.9-1.4H1.4
			v-11.9h3.7c3.4,0,6.5-0.8,9.3-2c2.8-1.1,5.4-2.8,7.4-5.1s3.7-4.8,4.8-7.6c1.1-3.1,1.7-6.2,1.7-9.9v-39.9c0-5.4,0.8-10.5,2.8-15.3
			c2-4.5,4.5-8.5,7.9-11.9c3.4-3.4,7.4-5.9,12.2-7.9c4.5-2,9.6-2.8,15-2.8h1.1v11.9h-1.1c-3.7,0-6.8,0.6-9.9,1.7
			c-3.1,1.1-5.7,2.8-7.9,5.1c-2.3,2.3-4,4.8-5.1,7.9c-1.1,3.1-1.7,6.5-1.7,10.2v39.9c0,7.1-1.4,13.3-4.5,19
			c-3.1,5.7-7.1,9.9-12.2,13c5.1,3.4,9.1,7.6,12.2,13.3c3.1,5.7,4.5,11.9,4.5,18.7V372c0,3.7,0.6,7.1,1.7,10.2
			c1.1,3.1,2.8,5.7,5.1,7.9s4.8,3.7,7.9,5.1c3.1,1.1,6.2,1.7,9.9,1.7h1.1v11.9h-1.1c-5.4,0-10.5-0.8-15-2.8s-8.8-4.5-12.2-7.9
			c-3.4-3.4-5.9-7.4-7.9-11.9c-2-4.5-2.8-9.6-2.8-15.3V330.4z"/>
		<path fill="#EA5143" d="M131.1,223.1v141h-13.9v-141H80.4v-13.3h87.5v13.3H131.1z"/>
		<path fill="#EA5143" d="M211.5,266.7c-2.5,0-5.1,0.6-7.4,1.4c-2.3,1.1-4.2,2.3-5.9,4c-1.7,1.7-3.1,3.7-4,5.9
			c-1.1,2.3-1.4,4.8-1.4,7.4v78.4h-13.3V254h4.5l7.1,11.3c3.1-4,6.8-7.4,11.3-9.6c4.5-2.3,9.6-3.7,15-3.7h7.6v14.7H211.5z"/>
		<path fill="#EA5143" d="M311.4,364.1l-7.4-11c-3.1,4-6.8,7.1-11.3,9.6c-4.5,2.3-9.3,3.7-14.7,3.7h-3.4c-4.5,0-8.8-0.8-12.5-2.5
			c-4-1.7-7.4-4-10.2-7.1c-2.8-2.8-5.4-6.5-7.1-10.2c-1.7-4-2.5-8.2-2.5-12.5V333c0-4.5,0.8-8.8,2.5-12.5c1.7-4,4-7.4,7.1-10.2
			c2.8-2.8,6.5-5.4,10.2-7.1c4-1.7,8.2-2.5,12.5-2.5h28v-17c0-2.5-0.6-5.1-1.4-7.4c-1.1-2.3-2.3-4.2-4-5.9c-1.7-1.7-3.7-3.1-5.9-4
			c-2.3-1.1-4.8-1.4-7.4-1.4h-7.6c-2.5,0-5.1,0.6-7.4,1.4c-2.3,1.1-4.2,2.3-5.9,4c-1.7,1.7-3.1,3.7-4,5.9c-1.1,2.3-1.4,4.8-1.4,7.4
			v4l-13.3-2.3v-1.1c0-4.5,0.8-8.8,2.5-12.5c1.7-4,4-7.4,7.1-10.2c2.8-2.8,6.5-5.4,10.2-7.1c4-1.7,8.2-2.5,12.5-2.5h7.6
			c4.5,0,8.8,0.8,12.5,2.5c4,1.7,7.4,4,10.2,7.1c2.8,2.8,5.4,6.5,7.1,10.2c1.7,4,2.5,8.2,2.5,12.5v79.8H311.4L311.4,364.1z
			 M302.6,310.9h-28c-2.5,0-5.1,0.6-7.4,1.4c-2.3,1.1-4.2,2.3-5.9,4.2c-1.7,1.7-3.1,3.7-4,6.2c-1.1,2.3-1.4,4.8-1.4,7.4v4.5
			c0,2.5,0.6,5.1,1.4,7.4c1.1,2.3,2.3,4.2,4,5.9c1.7,1.7,3.7,3.1,5.9,4c2.3,1.1,4.8,1.4,7.4,1.4h8.8c2.5,0,5.1-0.6,7.4-1.4
			c2.3-1.1,4.2-2.3,5.9-4c1.7-1.7,3.1-3.7,4-5.9c1.1-2.3,1.4-4.8,1.4-7.4v-23.8H302.6z"/>
		<path fill="#EA5143" d="M413.3,346.6c-1.7,4-4,7.4-7.1,10.2c-2.8,2.8-6.5,5.4-10.2,7.1c-4,1.7-8.2,2.5-12.5,2.5h-8.8
			c-4.5,0-8.8-0.8-12.5-2.5c-4-1.7-7.4-4-10.2-7.1c-2.8-2.8-5.4-6.5-7.1-10.2c-1.7-4-2.5-8.2-2.5-12.5v-49.8c0-4.5,0.8-8.8,2.5-12.5
			c1.7-4,4-7.4,7.1-10.2c2.8-2.8,6.5-5.4,10.2-7.1c4-1.7,8.2-2.5,12.5-2.5h8.8c4.5,0,8.8,0.8,12.5,2.5c4,1.7,7.4,4,10.2,7.1
			c2.8,2.8,5.4,6.5,7.1,10.2c1.7,4,2.5,8.2,2.5,12.5v4.5l-13.3,2.3v-7.4c0-2.5-0.6-5.1-1.4-7.4c-1.1-2.3-2.3-4.2-4-5.9
			c-1.7-1.7-3.7-3.1-5.9-4c-2.3-1.1-4.8-1.4-7.4-1.4h-8.8c-2.5,0-5.1,0.6-7.4,1.4c-2.3,1.1-4.2,2.3-5.9,4c-1.7,1.7-3.1,3.7-4,5.9
			c-1.1,2.3-1.4,4.8-1.4,7.4V335c0,2.5,0.6,5.1,1.4,7.4c1.1,2.3,2.3,4.2,4,5.9c1.7,1.7,3.7,3.1,5.9,4c2.3,1.1,4.8,1.4,7.4,1.4h8.8
			c2.5,0,5.1-0.6,7.4-1.4c2.3-1.1,4.2-2.3,5.9-4c1.7-1.7,3.1-3.7,4-5.9c1.1-2.3,1.4-4.8,1.4-7.4v-7.4l13.3,2.3v4.2
			C415.9,338.4,415,342.6,413.3,346.6z"/>
		<path fill="#EA5143" d="M444.7,364.1V209.8H458v154.3H444.7z M505.3,364.1l-45-55.2l45-54.9h17.3l-46.1,55.2l46.1,55.2h-17.3
			V364.1z"/>
		<path fill="#EA5143" d="M542.4,270.7V254h16.7v16.7H542.4z M542.4,364.1v-16.7h16.7v16.7H542.4z"/>
		<path fill="#EA5143" d="M602.7,388.5c-1.7,4-4,7.4-7.1,10.2c-2.8,2.8-6.5,5.4-10.2,7.1c-4,1.7-8.2,2.5-12.5,2.5v-12.5
			c2.5,0,5.1-0.6,7.4-1.4c2.3-0.8,4.2-2.3,5.9-4s3.1-3.7,4-5.9c1.1-2.3,1.4-4.8,1.4-7.4V254h13.3v122
			C605.2,380.2,604.4,384.5,602.7,388.5z M591.1,227.7v-17.6h15.3v17.6H591.1z"/>
		<path fill="#EA5143" d="M711.9,336.4c0,4.5-0.8,8.5-2.5,12.2c-1.7,3.7-4.2,6.8-7.4,9.6c-3.1,2.5-6.8,4.8-10.8,6.2
			c-4,1.4-8.2,2.3-12.7,2.3h-9.1c-4.5,0-8.8-0.8-12.7-2.5c-4-1.7-7.6-4-10.8-7.1c-3.1-2.8-5.4-6.5-7.4-10.2c-1.7-4-2.8-8.2-2.8-12.5
			v-4.5l13.3-2.3v7.4c0,2.5,0.6,5.1,1.7,7.4c1.1,2.3,2.5,4.2,4.5,5.9c2,1.7,4,3.1,6.5,4c2.5,1.1,5.1,1.4,7.6,1.4h8.8
			c2.5,0,5.1-0.3,7.6-1.1s4.5-2,6.5-3.4c2-1.4,3.4-3.1,4.5-5.4c1.1-2,1.7-4.5,1.7-7.1c0-4-0.8-7.1-2.5-9.6c-1.7-2.5-4-4.5-6.8-6.2
			c-2.8-1.7-5.9-3.1-9.6-4.2c-3.7-1.1-7.4-2.3-11-3.4s-7.6-2.3-11-3.7c-3.7-1.4-6.8-3.4-9.6-5.7c-2.8-2.3-5.1-5.4-6.8-8.8
			c-1.7-3.4-2.5-7.9-2.5-13c0-4.5,0.8-8.5,2.5-12.2c1.7-3.7,4-6.8,7.1-9.6c2.8-2.5,6.2-4.8,10.2-6.2c4-1.4,8.2-2.3,12.5-2.3h7.6
			c4.5,0,8.8,0.8,12.5,2.5c4,1.7,7.4,4,10.2,7.1c2.8,2.8,5.4,6.5,7.1,10.2c1.7,4,2.5,8.2,2.5,12.5v0.6l-13.3,2.3v-3.4
			c0-2.5-0.6-5.1-1.4-7.4c-1.1-2.3-2.3-4.2-4-5.9c-1.7-1.7-3.7-3.1-5.9-4c-2.3-1.1-4.8-1.4-7.4-1.4h-7.6c-2.5,0-5.1,0.3-7.4,1.1
			c-2.3,0.8-4.2,2-5.9,3.4c-1.7,1.4-3.1,3.1-4,5.4c-1.1,2-1.4,4.5-1.4,7.1c0,3.7,0.8,6.8,2.5,9.3c1.7,2.3,4,4.5,6.8,5.9
			c2.8,1.7,5.9,3.1,9.6,4.2c3.7,1.1,7.4,2.3,11,3.4c3.7,1.1,7.4,2.5,11,4s6.8,3.4,9.6,5.9c2.8,2.3,5.1,5.4,6.8,8.8
			C711.1,326.7,711.9,331,711.9,336.4z"/>
		<path fill="#EA5143" d="M771.7,370.3c0,5.7-0.8,10.5-2.8,15.3c-2,4.5-4.5,8.5-7.9,11.9c-3.4,3.4-7.4,5.9-12.2,7.9
			c-4.8,2-9.6,2.8-15,2.8h-1.1v-11.9h1.1c3.7,0,6.8-0.6,9.9-1.7c3.1-1.1,5.7-2.8,7.9-5.1s4-4.8,5.1-7.9c1.1-3.1,1.7-6.5,1.7-10.2
			v-39.6c0-7.1,1.4-13.3,4.5-18.7c2.8-5.7,7.1-9.9,12.2-13.3c-5.1-3.1-9.3-7.6-12.2-13.3c-3.1-5.7-4.5-11.9-4.5-18.7V228
			c0-3.7-0.6-7.1-1.7-10.2c-1.1-3.1-2.8-5.7-5.1-7.9c-2.3-2.3-4.8-3.7-7.9-5.1c-3.1-1.1-6.2-1.7-9.9-1.7h-1.1v-11.9h1.1
			c5.4,0,10.5,0.8,15,2.8c4.5,2,8.8,4.5,12.2,7.9c3.4,3.4,5.9,7.4,7.9,11.9c2,4.5,2.8,9.6,2.8,15.3V269c0,3.7,0.6,7.1,1.7,10.2
			c1.1,3.1,2.8,5.7,5.1,7.9c2.3,2.3,4.8,3.7,7.9,5.1c3.1,1.1,6.2,1.7,9.9,1.7h2.3v11.9h-3.4c-3.4,0-6.5,0.8-9.6,2
			c-2.8,1.1-5.4,3.1-7.6,5.1c-2,2.3-3.7,4.8-4.8,7.6c-1.1,3.1-1.7,6.2-1.7,9.9v39.9H771.7z"/>
	</g>
</g>
</svg>
